# AST/ASF file generated using VICON BodyLanguage
# -----------------------------------------------
:version 1.10
:name VICON
:units
  mass 1.0
  length 0.45
  angle deg
:documentation
   .ast/.asf automatically generated from VICON data using
   VICON BodyBuilder and BodyLanguage model FoxedUp or BRILLIANT.MOD
:root
   order TX TY TZ RX RY RZ
   axis XYZ
   position 0 0 0  
   orientation 0 0 0 
:bonedata
  begin
     id 1 
     name lhipjoint
     direction 0.822369 -0.411937 0.392449 
     length 3.8167 
     axis 0 0 0  XYZ
  end
  begin
     id 2 
     name lfemur
     direction 0.34202 -0.939693 0  
     length 6.16791  
     axis 0 0 20  XYZ
    dof rx ry rz
    limits (-160.0 20.0)
           (-70.0 70.0)
           (-60.0 70.0)
  end
  begin
     id 3 
     name ltibia
     direction 0.34202 -0.939693 0   
     length 7.07101   
     axis 0 0 20   XYZ
    dof rx
    limits (-10.0 170.0)
  end
  begin
     id 4 
     name lfoot
     direction 0.028254 -0.0776273 0.996582   
     length 1.66799   
     axis -90 7.62852e-016 20   XYZ
    dof rx rz
    limits (-45.0 90.0)
           (-70.0 20.0)
  end
  begin
     id 5 
     name ltoes
     direction 1.53483e-011 -4.21688e-011 1   
     length 0.851674   
     axis -90 7.62852e-016 20   XYZ
    dof rx
    limits (-90.0 20.0)
  end
  begin
     id 6 
     name rhipjoint
     direction -0.822466 -0.411836 0.392353   
     length 3.81764  
     axis 0 0 0  XYZ 
  end
  begin
     id 7 
     name rfemur
     direction -0.34202 -0.939693 0   
     length 6.28636   
     axis 0 0 -20   XYZ
    dof rx ry rz
    limits (-160.0 20.0)
           (-70.0 70.0)
           (-70.0 60.0)
  end
  begin
     id 8 
     name rtibia
     direction -0.34202 -0.939693 0   
     length 6.85621   
     axis 0 0 -20   XYZ
    dof rx
    limits (-10.0 170.0)
 end
 begin
     id 9 
     name rfoot
     direction -0.0553036 -0.151945 0.98684   
     length 1.57293  
     axis -90 -7.62852e-016 -20   XYZ
    dof rx rz
    limits (-45.0 90.0)
           (-20.0 70.0)
  end
  begin
     id 10 
     name rtoes
     direction -1.53592e-011 -4.21964e-011 1   
     length 0.802812   
     axis -90 -7.62852e-016 -20   XYZ
    dof rx
    limits (-90.0 20.0)
  end
  begin
     id 11 
     name lowerback
     direction 0.00654913 0.996475 -0.0836396   
     length 1.97212   
     axis 0 0 0   XYZ
    dof rx ry rz
    limits (-20.0 45.0)
           (-30.0 30.0)
           (-30.0 30.0)
  end
  begin
     id 12 
     name upperback
     direction 0.0111875 0.994527 0.103877   
     length 1.89704   
     axis 0 0 0   XYZ
    dof rx ry rz
    limits (-20.0 45.0)
           (-30.0 30.0)
           (-30.0 30.0)
  end
  begin
     id 13 
     name thorax
     direction 0.00473652 0.989004 0.147814   
     length 1.94516   
     axis 0 0 0   XYZ
    dof rx ry rz
    limits (-20.0 45.0)
           (-30.0 30.0)
           (-30.0 30.0)
  end
  begin
     id 14 
     name lowerneck
     direction -0.00925808 0.999011 0.0434791   
     length 1.81771   
     axis 0 0 0   XYZ
    dof rx ry rz
    limits (-20.0 45.0)
           (-30.0 30.0)
           (-30.0 30.0)
  end
  begin
     id 15 
     name upperneck
     direction 0.00451595 0.964412 -0.264365   
     length 1.80434   
     axis 0 0 0   XYZ
    dof rx ry rz
    limits (-20.0 45.0)
           (-30.0 30.0)
           (-30.0 30.0)
  end
  begin
     id 16
     name head
     direction -0.00110849 0.995756 -0.0920241  
     length 1.84006  
     axis 0 0 0   XYZ
    dof rx ry rz
    limits (-20.0 45.0)
           (-30.0 30.0)
           (-30.0 30.0)
  end
  begin
     id 17 
     name lclavicle
     direction 0.921253 0.385213 0.0538957  
     length 3.67415  
     axis 0 0 0   XYZ
    dof ry rz
    limits (-20.0 10.0)
           (0.0 20.0)
  end
  begin
     id 18 
     name lhumerus
     direction 1 -4.48961e-011 6.73441e-028   
     length 4.32712   
     axis 180 -30 -90   XYZ
    dof rx ry rz
    limits (-60.0 90.0)
           (-90.0 90.0)
           (-90.0 90.0)
  end
  begin
     id 19
     name lradius
     direction 1 -4.48985e-011 -9.53507e-028   
     length 3.28587   
     axis 180 -30 -90   XYZ
    dof rx
    limits (-10.0 170.0)
  end
  begin
     id 20
     name lwrist
     direction 1 -4.48951e-011 -4.67472e-027   
     length 1.64293   
     axis 1.65735e-015 90 90   XYZ
    dof ry
    limits (-180.0 0.0)
 end
  begin
     id 21 
     name lhand
     direction 1 -4.48946e-011 -9.34945e-027   
     length 0.433158   
     axis 5.96574e-015 90 90   XYZ
    dof rx rz
    limits (-90.0 90.0)
           (-45.0 45.0)
  end
  begin
     id 22 
     name lfingers
     direction 1 -4.48882e-011 -1.86989e-026   
     length 0.349224   
     axis 1.19315e-014 90 90   XYZ
    dof rx
    limits (0.0 90.0)
  end
  begin
     id 23
     name lthumb
     direction 0.707107 -6.3493e-011 0.707107   
     length 0.501417   
     axis -90 45 2.85299e-015   XYZ
    dof rx rz
    limits (-45.0 45.0)
           (-45.0 45.0)
  end
  begin
     id 24 
     name rclavicle
     direction -0.884378 0.46502 -0.0403866   
     length 3.50218  
     axis 0 0 0   XYZ 
    dof ry rz
    limits (-10.0 20.0)
           (-20.0 0.0)
  end
  begin
     id 25 
     name rhumerus
     direction -1 -4.48964e-011 1.58188e-027  
     length 4.29104   
     axis 180 30 90   XYZ
    dof rx ry rz
    limits (-90.0 60.0)
           (-90.0 90.0)
           (-90.0 90.0)
  end
  begin
     id 26 
     name rradius
     direction -1 -4.48978e-011 -1.9722e-027   
     length 3.2272   
     axis 180 30 90   XYZ
    dof rx
    limits (-10.0 170.0)
  end
  begin
     id 27 
     name rwrist
     direction -1 -4.48969e-011 -4.67472e-027   
     length 1.6136   
     axis 1.65735e-015 -90 -90   XYZ
    dof ry
    limits (-180.0 0.0)
  end
  begin
     id 28
     name rhand
     direction -1 -4.48846e-011 -9.34945e-027   
     length 0.543623   
     axis 5.96574e-015 -90 -90   XYZ
    dof rx rz
    limits (-90.0 90.0)
           (-45.0 45.0)
  end
  begin
     id 29
     name rfingers
     direction -1 -4.49074e-011 -1.86989e-026   
     length 0.438283   
     axis 1.19315e-014 -90 -90   XYZ
    dof rx
    limits (0.0 90.0)
  end
  begin
     id 30
     name rthumb
     direction -0.707107 -6.34834e-011 0.707107   
     length 0.629289   
     axis -90 -45 -2.85299e-015   XYZ
    dof rx rz
    limits (-45.0 45.0)
           (-45.0 45.0)
  end
:hierarchy
  begin
    root lhipjoint rhipjoint lowerback
    lhipjoint lfemur
    lfemur ltibia
    ltibia lfoot
    lfoot ltoes
    rhipjoint rfemur
    rfemur rtibia
    rtibia rfoot
    rfoot rtoes
    lowerback upperback
    upperback thorax
    thorax lowerneck lclavicle rclavicle
    lowerneck upperneck
    upperneck head
    lclavicle lhumerus
    lhumerus lradius
    lradius lwrist
    lwrist lhand lthumb
    lhand lfingers
    rclavicle rhumerus
    rhumerus rradius
    rradius rwrist
    rwrist rhand rthumb
    rhand rfingers
  end

#!OML:ASF H:\GeneralSubjects\Female5\Project 1\Capture day 1\Session 1\Female5.ASF
:FULLY-SPECIFIED
:DEGREES
33
root 1.82896 15.9829 4.08683 -172.28 -27.5997 -177.04
lowerback 7.04042 0.998161 -1.7958
upperback -9.09379 0.947105 2.73519
thorax -14.0469 0.618404 3.91213
lowerneck -17.4051 -0.690005 -2.29146
upperneck 32.9786 -1.39689 -1.77854
head 14.2061 -1.79719 -0.725482
rclavicle -1.48592e-014 1.03368e-014
rhumerus -48.9422 20.9588 -83.8266
rradius 40.6279
rwrist -8.66649
rhand -28.9146 -18.3155
rfingers 7.12502
rthumb -2.26926 -48.2832
lclavicle -1.48592e-014 1.03368e-014
lhumerus -47.4299 13.593 70.4123
lradius 37.3471
lwrist -4.51728
lhand -25.6288 36.9116
lfingers 7.12502
lthumb 0.904267 66.8894
rfemur -4.39711 20.7174 16.2774
rtibia 4.41277
rfoot -29.8799 -24.6422
rtoes 6.20941
lfemur -8.86839 -14.4375 -27.1877
ltibia 15.0447
lfoot -27.1953 -4.82379
ltoes -18.0454
34
root 1.87614 15.9836 4.04462 -172.503 -27.703 -177.106
lowerback 6.99064 0.9386 -1.89568
upperback -9.08435 0.861521 2.84052
thorax -14.003 0.593623 4.10233
lowerneck -17.3143 -0.884589 -2.01333
upperneck 32.9075 -1.65529 -2.16539
head 14.1476 -1.92904 -0.971599
rclavicle -6.72389e-014 -4.81059e-014
rhumerus -48.8852 21.3299 -83.9258
rradius 40.7208
rwrist -8.66353
rhand -28.973 -18.4269
rfingers 7.12502
rthumb -2.32568 -48.394
lclavicle -6.72389e-014 -4.81059e-014
lhumerus -47.7033 13.6447 70.7238
lradius 37.9831
lwrist -3.79935
lhand -24.5536 37.8858
lfingers 7.12502
lthumb 1.94266 67.8568
rfemur -3.67371 21.0946 16.6439
rtibia 3.89901
rfoot -29.0535 -25.6148
rtoes 3.48451
lfemur -8.48816 -14.6631 -27.1037
ltibia 14.9552
lfoot -27.4361 -4.89962
ltoes -17.6579
35
root 1.91475 15.9776 3.99532 -172.589 -27.8654 -177.505
lowerback 6.81518 0.88091 -2.20256
upperback -9.07708 0.743134 2.85574
thorax -13.8818 0.56766 4.31341
lowerneck -17.1904 -0.698843 -2.27054
upperneck 33.0148 -1.35405 -2.06555
head 14.1726 -1.82953 -0.838702
rclavicle 6.33129e-014 7.196e-014
rhumerus -48.9173 21.5442 -83.878
rradius 40.8669
rwrist -8.35814
rhand -28.7874 -18.307
rfingers 7.12502
rthumb -2.14639 -48.276
lclavicle 6.33129e-014 7.196e-014
lhumerus -47.9839 13.5996 71.1524
lradius 38.4309
lwrist -3.59834
lhand -24.6438 38.0159
lfingers 7.12502
lthumb 1.85559 67.9875
rfemur -2.79678 21.065 16.6807
rtibia 3.32218
rfoot -28.042 -26.4875
rtoes 0.00556944
lfemur -7.86278 -15.1358 -27.5138
ltibia 14.6751
lfoot -27.737 -5.39375
ltoes -15.5137
36
root 1.9455 15.9738 3.9416 -172.827 -27.9601 -177.805
lowerback 6.64164 0.912114 -2.20791
upperback -9.03488 0.781615 2.7744
thorax -13.7229 0.578707 4.2145
lowerneck -17.0076 -0.689981 -2.58458
upperneck 33.0266 -1.30751 -1.9165
head 14.1417 -1.83401 -0.714871
rclavicle -1.00386e-014 3.97569e-015
rhumerus -49.1129 21.6576 -83.9496
rradius 41.1843
rwrist -8.33172
rhand -29.0322 -18.2065
rfingers 7.12502
rthumb -2.38286 -48.1729
lclavicle -1.00386e-014 3.97569e-015
lhumerus -48.1016 13.4727 71.5667
lradius 38.6509
lwrist -3.56208
lhand -26.7238 36.3813
lfingers 7.12502
lthumb -0.153369 66.361
rfemur -1.70883 20.9797 16.8739
rtibia 2.61307
rfoot -27.9527 -26.5594
rtoes -0.488096
lfemur -6.96037 -15.4708 -27.889
ltibia 14.2029
lfoot -27.9233 -5.91373
ltoes -12.8331
37
root 2.00129 15.9793 3.90746 -173.266 -28.0814 -177.246
lowerback 6.72112 0.886605 -1.70479
upperback -9.1157 0.817412 2.95958
thorax -13.8634 0.553146 4.13463
lowerneck -16.8334 -0.658773 -2.663
upperneck 32.898 -1.22667 -1.94458
head 14.0464 -1.8106 -0.693359
rclavicle 7.95139e-015 3.81667e-014
rhumerus -49.2404 21.9983 -84.1503
rradius 41.5363
rwrist -8.42723
rhand -29.2778 -18.2572
rfingers 7.12502
rthumb -2.61998 -48.2209
lclavicle 7.95139e-015 3.81667e-014
lhumerus -48.3227 13.5133 71.8286
lradius 38.8175
lwrist -3.27747
lhand -27.6365 35.0537
lfingers 7.12502
lthumb -1.03486 65.031
rfemur -1.24274 21.359 17.8942
rtibia 2.28033
rfoot -28.8553 -26.509
rtoes 1.24188
lfemur -6.7769 -15.6593 -27.0318
ltibia 14.1599
lfoot -27.8408 -6.90365
ltoes -9.6565
